<svg xmlns="http://www.w3.org/2000/svg" xmlns:xlink="http://www.w3.org/1999/xlink" width="500" zoomAndPan="magnify" viewBox="0 0 375 374.999991" height="500" preserveAspectRatio="xMidYMid meet" version="1.0"><defs><clipPath id="9642fed3ed"><path d="M 7.078125 172 L 315 172 L 315 298 L 7.078125 298 Z M 7.078125 172 " clip-rule="nonzero"/></clipPath><clipPath id="82ef00428a"><path d="M 50.800781 184 L 112 184 L 112 251 L 50.800781 251 Z M 50.800781 184 " clip-rule="nonzero"/></clipPath><clipPath id="16be2b4dbd"><path d="M 87 206 L 151.699219 206 L 151.699219 285 L 87 285 Z M 87 206 " clip-rule="nonzero"/></clipPath></defs><g clip-path="url(#9642fed3ed)"><path fill="#aee1ff" d="M 251.875 297.320312 L 69.632812 297.320312 C 35.328125 297.320312 7.273438 269.265625 7.273438 234.960938 C 7.273438 200.675781 35.328125 172.617188 69.632812 172.617188 L 251.875 172.617188 C 286.160156 172.617188 314.214844 200.675781 314.214844 234.960938 C 314.214844 269.265625 286.160156 297.320312 251.875 297.320312 " fill-opacity="1" fill-rule="nonzero"/></g><path fill="#0071bc" d="M 251.875 172.617188 L 160.734375 172.617188 L 160.734375 297.320312 L 251.875 297.320312 C 286.160156 297.320312 314.214844 269.265625 314.214844 234.960938 C 314.214844 200.675781 286.160156 172.617188 251.875 172.617188 " fill-opacity="1" fill-rule="nonzero"/><path fill="#aee1ff" d="M 362.828125 123.644531 L 299.78125 294.640625 C 287.917969 326.824219 251.894531 343.453125 219.707031 331.589844 C 187.523438 319.722656 170.914062 283.679688 182.777344 251.496094 L 245.808594 80.519531 C 257.671875 48.332031 293.714844 31.707031 325.878906 43.570312 C 358.066406 55.433594 374.691406 91.476562 362.828125 123.644531 " fill-opacity="1" fill-rule="nonzero"/><path fill="#0071bc" d="M 245.808594 80.519531 L 214.292969 166.007812 L 331.3125 209.152344 L 362.828125 123.644531 C 374.691406 91.476562 358.066406 55.433594 325.878906 43.570312 C 293.714844 31.707031 257.671875 48.332031 245.808594 80.519531 " fill-opacity="1" fill-rule="nonzero"/><g clip-path="url(#82ef00428a)"><path fill="#0071bc" d="M 79.792969 250.621094 L 66.695312 250.621094 C 57.914062 250.621094 50.796875 243.503906 50.796875 234.722656 C 50.796875 225.941406 57.914062 218.824219 66.695312 218.824219 L 85.089844 218.824219 L 85.089844 200.429688 C 85.089844 191.648438 92.207031 184.53125 100.988281 184.53125 C 104.796875 184.53125 108.292969 185.871094 111.03125 188.105469 C 98.152344 241.246094 79.792969 250.621094 79.792969 250.621094 " fill-opacity="1" fill-rule="nonzero"/></g><g clip-path="url(#16be2b4dbd)"><path fill="#0071bc" d="M 87.53125 277.476562 C 87.53125 277.476562 102.847656 267.074219 116.886719 206.988281 L 116.886719 218.824219 L 135.28125 218.824219 C 144.0625 218.824219 151.179688 225.941406 151.179688 234.722656 C 151.179688 243.503906 144.0625 250.621094 135.28125 250.621094 L 116.886719 250.621094 L 116.886719 269.015625 C 116.886719 277.796875 109.769531 284.914062 100.988281 284.914062 C 95.320312 284.914062 90.347656 281.945312 87.53125 277.476562 " fill-opacity="1" fill-rule="nonzero"/></g></svg>